<svg width="855" height="223" viewBox="0 0 855 223" fill="none" xmlns="http://www.w3.org/2000/svg">
<path d="M275.309 119.736V150.093C275.309 154.4 274.52 157.802 272.243 160.064C269.966 162.326 266.565 163.122 262.256 163.122H216.03C215.597 163.183 215.157 163.142 214.743 163.004C214.329 162.866 213.953 162.634 213.644 162.326C213.335 162.018 213.102 161.643 212.964 161.23C212.825 160.817 212.785 160.377 212.846 159.946V67.7349C212.785 67.3036 212.825 66.8642 212.964 66.4512C213.102 66.0382 213.335 65.6629 213.644 65.355C213.953 65.0471 214.329 64.8148 214.743 64.6766C215.157 64.5384 215.597 64.498 216.03 64.5586H248.622C252.94 64.5586 256.351 65.3551 258.619 67.6169C260.886 69.8786 261.685 73.2811 261.685 77.5883V106.706H262.237C266.545 106.706 269.956 107.493 272.223 109.764C274.491 112.036 275.309 115.429 275.309 119.736ZM226.48 106.706H248.06V77.6866H226.48V106.706ZM261.685 119.844H226.48V149.984H261.685V119.844Z" fill="#333333"/>
<path d="M316.882 131.29V150.456H353.793C354.225 150.394 354.665 150.433 355.079 150.57C355.493 150.707 355.87 150.938 356.179 151.245C356.488 151.553 356.721 151.927 356.859 152.34C356.998 152.753 357.038 153.192 356.977 153.623V159.966C357.023 160.396 356.975 160.832 356.837 161.242C356.7 161.653 356.475 162.029 356.178 162.345C355.86 162.639 355.483 162.862 355.071 162.999C354.66 163.136 354.224 163.185 353.793 163.142H316.774C312.456 163.142 309.055 162.345 306.777 160.084C304.5 157.822 303.711 154.419 303.711 150.112V99.1144C303.711 94.8072 304.51 91.4145 306.777 89.143C309.045 86.8714 312.456 86.0847 316.774 86.0847H344.378C348.696 86.0847 352.107 86.8812 354.374 89.143C356.642 91.4047 357.44 94.8072 357.44 99.1144V128.114C357.503 128.545 357.464 128.984 357.327 129.397C357.189 129.81 356.958 130.186 356.649 130.494C356.341 130.802 355.966 131.035 355.552 131.173C355.138 131.311 354.698 131.351 354.266 131.29H316.882ZM316.882 98.9964V118.369H344.26V98.9964H316.882Z" fill="#333333"/>
<path d="M444.886 99.1144V159.946C444.948 160.377 444.909 160.816 444.772 161.229C444.635 161.642 444.403 162.018 444.095 162.326C443.787 162.634 443.411 162.867 442.997 163.005C442.583 163.143 442.143 163.183 441.711 163.122H434.899C434.467 163.165 434.032 163.117 433.62 162.979C433.209 162.842 432.832 162.619 432.513 162.326C432.217 162.009 431.992 161.633 431.854 161.223C431.716 160.812 431.669 160.377 431.715 159.946V98.9767H400.591V159.946C400.654 160.377 400.615 160.816 400.477 161.229C400.34 161.642 400.108 162.018 399.8 162.326C399.492 162.634 399.116 162.867 398.703 163.005C398.289 163.143 397.849 163.183 397.417 163.122H390.605C390.172 163.183 389.732 163.142 389.318 163.004C388.904 162.866 388.527 162.634 388.219 162.326C387.91 162.018 387.677 161.643 387.539 161.23C387.4 160.817 387.36 160.377 387.42 159.946V89.2609C387.36 88.8297 387.4 88.3902 387.539 87.9773C387.677 87.5643 387.91 87.189 388.219 86.8811C388.527 86.5731 388.904 86.3409 389.318 86.2027C389.732 86.0645 390.172 86.0241 390.605 86.0847H431.803C436.121 86.0847 439.532 86.8812 441.8 89.1429C444.067 91.4047 444.886 94.8072 444.886 99.1144Z" fill="#333333"/>
<path d="M519.396 153.407V159.975C519.441 160.405 519.394 160.84 519.258 161.25C519.122 161.66 518.901 162.037 518.608 162.355C518.288 162.648 517.911 162.87 517.5 163.007C517.089 163.144 516.653 163.194 516.222 163.152H495.657C491.349 163.152 487.938 162.355 485.67 160.094C483.403 157.832 482.604 154.429 482.604 150.122V98.9866H473.623C473.192 99.0472 472.753 99.0071 472.34 98.8694C471.927 98.7317 471.552 98.5002 471.244 98.1931C470.936 97.8861 470.704 97.5119 470.566 97.1001C470.428 96.6883 470.388 96.2501 470.449 95.8201V89.261C470.388 88.8306 470.429 88.3922 470.567 87.9801C470.705 87.5679 470.937 87.1933 471.244 86.8856C471.552 86.5778 471.927 86.3454 472.339 86.2064C472.752 86.0675 473.192 86.0258 473.623 86.0847H482.604V67.7349C482.542 67.3042 482.581 66.8649 482.718 66.4518C482.855 66.0386 483.087 65.6631 483.395 65.3549C483.703 65.0467 484.079 64.8142 484.493 64.676C484.906 64.5378 485.347 64.4976 485.779 64.5586H492.591C493.023 64.498 493.464 64.5384 493.878 64.6766C494.292 64.8148 494.668 65.0471 494.977 65.355C495.286 65.663 495.518 66.0382 495.657 66.4512C495.795 66.8642 495.836 67.3036 495.775 67.7349V86.0847H515.542C515.973 86.0258 516.413 86.0675 516.825 86.2064C517.238 86.3454 517.613 86.5778 517.92 86.8856C518.228 87.1933 518.46 87.5679 518.598 87.9801C518.736 88.3922 518.776 88.8306 518.716 89.261V95.8299C518.777 96.2599 518.737 96.6981 518.598 97.1099C518.46 97.5217 518.228 97.8959 517.921 98.203C517.613 98.51 517.238 98.7415 516.825 98.8792C516.412 99.0169 515.973 99.057 515.542 98.9964H495.775V150.211H516.222C516.653 150.148 517.093 150.186 517.507 150.323C517.921 150.46 518.297 150.692 518.605 150.999C518.914 151.307 519.146 151.682 519.283 152.095C519.42 152.508 519.459 152.947 519.396 153.377V153.407Z" fill="#333333"/>
<path d="M597.081 89.143C599.359 91.4146 600.147 94.8072 600.147 99.1144V150.093C600.147 154.4 599.359 157.802 597.081 160.064C594.804 162.326 591.403 163.122 587.095 163.122H555.863C551.545 163.122 548.134 162.326 545.866 160.064C543.599 157.802 542.8 154.4 542.8 150.093V99.1144C542.8 94.8072 543.589 91.4146 545.866 89.143C548.144 86.8714 551.545 86.0847 555.863 86.0847H587.095C591.403 86.0847 594.814 86.8812 597.081 89.143ZM586.976 98.9767H556.021V150.191H586.976V98.9767Z" fill="#333333"/>
<path d="M683.067 119.165V150.093C683.067 154.4 682.269 157.802 680.001 160.064C677.734 162.326 674.323 163.122 670.005 163.122H637.068C632.75 163.122 629.348 162.326 627.071 160.064C624.794 157.802 624.044 154.39 624.044 150.093V139.561C623.984 139.129 624.024 138.69 624.163 138.277C624.301 137.864 624.534 137.489 624.843 137.181C625.152 136.873 625.528 136.641 625.942 136.502C626.356 136.364 626.796 136.324 627.229 136.384H634.495C634.927 136.324 635.367 136.364 635.781 136.502C636.195 136.641 636.572 136.873 636.88 137.181C637.189 137.489 637.422 137.864 637.56 138.277C637.699 138.69 637.74 139.129 637.679 139.561V149.984H669.394V119.283H641.159C640.727 119.344 640.286 119.304 639.872 119.165C639.458 119.027 639.082 118.795 638.773 118.487C638.464 118.179 638.231 117.804 638.093 117.391C637.954 116.978 637.914 116.538 637.975 116.107V109.223C637.905 108.223 638.052 107.22 638.406 106.282C638.76 105.343 639.312 104.492 640.025 103.785L663.419 77.6866H630.817C630.386 77.7455 629.946 77.7038 629.534 77.5649C629.121 77.4259 628.746 77.1935 628.438 76.8857C628.131 76.578 627.899 76.2034 627.761 75.7912C627.623 75.3791 627.583 74.9407 627.643 74.5103V67.7349C627.583 67.3045 627.623 66.8661 627.761 66.454C627.899 66.0418 628.131 65.6672 628.438 65.3595C628.746 65.0517 629.121 64.8193 629.534 64.6803C629.946 64.5413 630.386 64.4997 630.817 64.5586H672.164C678.523 64.5586 681.362 67.7349 681.362 72.3764C681.362 75.4347 680.228 78.0406 677.419 81.2268L654.606 106.136H670.054C674.372 106.136 677.773 106.932 680.051 109.194C682.328 111.456 683.067 114.858 683.067 119.165Z" fill="#333333"/>
<path d="M775.866 98.0917C778.797 103.227 780.253 109.069 780.075 114.976V150.093C780.075 154.4 779.277 157.802 777.009 160.064C774.742 162.326 771.331 163.122 767.013 163.122H718.055C717.624 163.165 717.188 163.117 716.777 162.979C716.365 162.842 715.988 162.619 715.669 162.326C715.373 162.009 715.148 161.633 715.011 161.223C714.873 160.812 714.825 160.377 714.871 159.946V67.7349C714.81 67.3036 714.851 66.8642 714.989 66.4512C715.128 66.0382 715.361 65.6629 715.669 65.355C715.978 65.0471 716.354 64.8148 716.768 64.6766C717.182 64.5384 717.623 64.498 718.055 64.5586H746.645C754.256 64.5586 759.017 67.5087 762.773 74.3038L775.866 98.0917ZM728.545 149.984H766.48V117.464C766.664 112.608 765.526 107.793 763.188 103.53L752.806 84.2753C750.421 79.8501 747.128 77.7063 742.13 77.7063H728.545V149.984Z" fill="#333333"/>
<path d="M185.054 76.7623C185.054 74.1661 182.461 71.7667 178.153 69.3083L145.906 50.7127C144.963 50.1206 143.871 49.8065 142.756 49.8065C141.642 49.8065 140.55 50.1206 139.606 50.7127L48.011 103.461C47.104 103.972 46.4336 104.493 46.4336 105.27C46.4441 105.458 46.4922 105.642 46.5752 105.811C46.6582 105.98 46.7743 106.13 46.9167 106.254H46.6406V153.456C46.6406 155.776 48.6123 156.927 49.401 157.389L93.4095 182.731C98.3387 185.553 102.657 186.861 107.093 186.861C111.529 186.861 115.887 185.553 120.777 182.731L149.751 166.013C152.462 164.45 155.459 162.424 156.839 159.739H157.056V159.307C157.414 158.494 157.602 157.618 157.608 156.73C157.603 155.793 157.398 154.868 157.007 154.016L156.938 146.965L177 135.421C180.657 133.316 184.887 130.346 184.887 126.088V78.8864H184.492C184.854 78.2359 185.047 77.5059 185.054 76.7623ZM143.195 64.1947L164.578 76.5066L135.772 93.0863L114.359 80.7744L143.195 64.1947ZM101.346 88.2973L136.225 108.388L106.295 125.616L71.4151 105.536L101.346 88.2973ZM147.247 161.736L118.273 178.453C114.171 180.813 110.622 181.915 107.093 181.915C103.564 181.915 100.015 180.813 95.9135 178.453L51.9051 153.082L51.6488 152.925V109.155L93.8038 133.434C98.0824 135.893 102.243 137.368 106.738 137.368C111.234 137.368 115.404 135.873 119.682 133.434L149.849 116.097C150.49 115.724 151.082 115.36 151.644 114.986L152.048 158.058C150.697 159.577 149.067 160.826 147.247 161.736ZM174.496 131.104L156.888 141.242L156.593 109.528C156.662 109.238 156.699 108.941 156.701 108.643C156.701 106.047 154.108 103.648 149.8 101.189L149.238 100.865L178.153 84.2162C178.735 83.8721 179.287 83.5377 179.8 83.2329V126.138C179.839 126.855 179.149 128.419 174.496 131.104Z" fill="#333333"/>
</svg>
